<?xml version="1.0" encoding="UTF-8"?>
<svg version="1.1" xmlns="http://www.w3.org/2000/svg" width="115" height="116">
<path d="M0 0 C37.95 0 75.9 0 115 0 C115 38.28 115 76.56 115 116 C77.05 116 39.1 116 0 116 C0 77.72 0 39.44 0 0 Z " fill="#28292C" transform="translate(0,0)"/>
<path d="M0 0 C7.86370892 6.66488578 13.50599114 14.53336324 15.1875 24.8125 C15.82128298 33.90364928 15.67880462 41.68337856 11.1875 49.8125 C10.76339844 50.59238281 10.33929688 51.37226562 9.90234375 52.17578125 C3.8951969 62.131916 -4.85124209 67.107895 -15.75390625 70.3984375 C-25.8960644 72.43841618 -35.82747118 70.54142868 -44.5 65.0625 C-53.61244747 58.52146628 -60.49903997 50.57696132 -62.52734375 39.25390625 C-64.03218542 26.36998783 -61.50030567 16.48881743 -53.73046875 6.03515625 C-40.26226454 -9.57259975 -16.69843595 -12.12893152 0 0 Z " fill="#060606" transform="translate(83.8125,25.1875)"/>
<path d="M0 0 C9.69139454 6.97567409 17.6335689 16.28573907 20.7109375 28.0390625 C23.09348259 43.77948335 21.5117185 57.7314535 12.4375 71.125 C5.21068303 80.34122164 -5.30731539 87.75794659 -17.0078125 89.90234375 C-33.47826701 91.57691642 -46.36996752 89.56314359 -59.8125 79.1875 C-69.89629627 70.02474339 -75.9946064 58.57730461 -77.0625 45.01171875 C-77.60755027 29.69921262 -73.0077228 17.22208454 -62.71484375 5.875 C-45.24701277 -10.86368377 -20.12392688 -12.49189339 0 0 Z M-57.921875 16.546875 C-65.6444683 26.90967114 -67.88408676 36.87347743 -66.5625 49.59375 C-64.90203619 59.41816086 -58.5783853 68.15310992 -50.8125 74.1875 C-40.50991338 80.33689826 -30.64051222 83.11381189 -18.6796875 80.50390625 C-6.77328525 76.83454187 1.20503283 70.77430513 7.47265625 59.97265625 C12.24642995 50.78442515 12.72100522 39.8927134 10.125 29.875 C6.59673101 19.91964947 -0.52868176 11.83878362 -9.8125 6.9375 C-26.91937807 -0.86791965 -45.32471557 2.4567189 -57.921875 16.546875 Z " fill="#EBEBEC" transform="translate(87.8125,14.8125)"/>
<path d="M0 0 C37.95 0 75.9 0 115 0 C115 21.78 115 43.56 115 66 C113.35 65.34 111.7 64.68 110 64 C109.97421875 63.06800781 109.9484375 62.13601562 109.921875 61.17578125 C109.19566755 44.85261843 104.7314772 30.52016265 92.58203125 18.921875 C80.119868 9.64595319 67.28482151 6.79778622 52 8 C43.55112076 9.53695828 36.73291596 12.73825269 30 18 C29.38640625 18.43957031 28.7728125 18.87914063 28.140625 19.33203125 C22.15615577 23.92630298 18.09596495 30.47302737 14.94921875 37.26953125 C13.55561172 39.81013995 11.6688721 40.04683139 9 41 C7.65210653 41.98028616 6.31787285 42.97971135 5 44 C3.68163705 44.69580267 2.35208914 45.37224433 1 46 C0.67 45.67 0.34 45.34 0 45 C0 30.15 0 15.3 0 0 Z " fill="#27292D" transform="translate(0,0)"/>
<path d="M0 0 C9.69139454 6.97567409 17.6335689 16.28573907 20.7109375 28.0390625 C23.09348259 43.77948335 21.5117185 57.7314535 12.4375 71.125 C5.21068303 80.34122164 -5.30731539 87.75794659 -17.0078125 89.90234375 C-33.47826701 91.57691642 -46.36996752 89.56314359 -59.8125 79.1875 C-69.89629627 70.02474339 -75.9946064 58.57730461 -77.0625 45.01171875 C-77.60755027 29.69921262 -73.0077228 17.22208454 -62.71484375 5.875 C-45.24701277 -10.86368377 -20.12392688 -12.49189339 0 0 Z M-62.125 12.4375 C-70.1214255 22.54312759 -74.01456496 34.41555983 -72.8125 47.1875 C-71.11568366 55.99937574 -68.33891316 63.12765901 -62.8125 70.1875 C-62.235 71.05375 -61.6575 71.92 -61.0625 72.8125 C-53.7081476 80.57542754 -43.01313726 86.54528142 -32.21875 87.390625 C-17.45196284 87.62879899 -5.73197626 83.46107751 5.11328125 73.4296875 C14.16708039 63.64271819 17.59755308 52.01357434 17.4609375 38.953125 C16.53741918 26.23495847 10.93279327 16.40949439 1.75 7.8125 C-2.18822438 4.50065987 -6.05118293 2.1087332 -10.8125 0.1875 C-11.78896484 -0.25916016 -11.78896484 -0.25916016 -12.78515625 -0.71484375 C-30.3763823 -7.84997656 -49.66768535 -0.76208988 -62.125 12.4375 Z " fill="#F1F1F1" transform="translate(87.8125,14.8125)"/>
<path d="M0 0 C37.95 0 75.9 0 115 0 C115 21.78 115 43.56 115 66 C113.35 65.34 111.7 64.68 110 64 C109.97421875 63.06800781 109.9484375 62.13601562 109.921875 61.17578125 C109.37794008 48.9496078 107.17606229 38.48963276 100.26953125 28.12109375 C99.02117341 26.03537588 98.56542139 24.33608311 98 22 C97.360625 21.38125 96.72125 20.7625 96.0625 20.125 C94 18 94 18 93.3125 15 C91.76010514 11.45166889 90.9972973 11.23471883 87.5625 9.75 C86.78003906 9.45609375 85.99757813 9.1621875 85.19140625 8.859375 C82.42905846 7.77610136 80.25884698 6.20394004 77.9375 4.375 C76.12413466 2.80708433 76.12413466 2.80708433 74 3 C74 2.34 74 1.68 74 1 C49.58 1 25.16 1 0 1 C0 0.67 0 0.34 0 0 Z " fill="#16191C" transform="translate(0,0)"/>
<path d="M0 0 C2.58984375 -0.1171875 2.58984375 -0.1171875 5 0 C4.7834375 0.83917969 4.7834375 0.83917969 4.5625 1.6953125 C1.08895474 16.69909827 2.71450571 30.06077328 10.30078125 43.41796875 C12.47812738 46.72653379 14.98389589 49.54437126 17.77734375 52.34375 C18.18082031 52.8903125 18.58429687 53.436875 19 54 C18.67 54.99 18.34 55.98 18 57 C17.34 56.67 16.68 56.34 16 56 C13.43730503 57.04109483 11.97389657 58.02610343 10 60 C8.68 59.34 7.36 58.68 6 58 C5.67 58.66 5.34 59.32 5 60 C5 59.34 5 58.68 5 58 C3.88625 57.566875 3.88625 57.566875 2.75 57.125 C0.42130491 56.17235201 -1.78051057 55.17910376 -4 54 C-4.8561792 53.69215576 -5.7123584 53.38431152 -6.59448242 53.06713867 C-9 51 -9 51 -9.43911743 48.98916626 C-9.58125241 46.26767468 -9.56084795 43.58761216 -9.48828125 40.86328125 C-9.48120651 39.86870407 -9.47413177 38.87412689 -9.46684265 37.84941101 C-9.43883158 34.66967867 -9.37607922 31.49170094 -9.3125 28.3125 C-9.28742588 26.15822854 -9.26461117 24.0039295 -9.24414062 21.84960938 C-9.1889834 16.56580659 -9.10529098 11.28302862 -9 6 C-7.56333984 5.57074219 -7.56333984 5.57074219 -6.09765625 5.1328125 C-2.91278446 4.29189538 -2.91278446 4.29189538 -1.4375 1.875 C-0.963125 1.25625 -0.48875 0.6375 0 0 Z " fill="#35424E" transform="translate(9,39)"/>
<path d="M0 0 C9.02614919 7.77019151 16.58439505 17.49313419 18.0625 29.6875 C19.05433171 44.45870794 15.85473728 55.94580061 6.375 67.375 C-1.73259861 76.10743234 -12.82785335 80.88098556 -24.62890625 81.92578125 C-36.42098188 82.23061042 -45.59092033 78.73129917 -54.9375 71.6875 C-55.80375 71.11 -56.67 70.5325 -57.5625 69.9375 C-66.15775125 61.79463039 -71.13554113 50.74569117 -72.17578125 38.99609375 C-72.5186774 25.73142674 -67.81980536 14.18384004 -58.8359375 4.3984375 C-42.66947274 -10.85402219 -18.28775916 -13.49147715 0 0 Z M-61.3671875 11.44921875 C-65.61522931 17.50426342 -68.5399324 24.26623813 -68.9375 31.6875 C-68.999375 32.48414063 -69.06125 33.28078125 -69.125 34.1015625 C-69.64218005 45.31790481 -66.26046112 56.11427722 -58.9375 64.6875 C-53.91583067 69.90481879 -48.70958131 74.04154173 -41.9375 76.6875 C-41.03644531 77.04328125 -40.13539062 77.3990625 -39.20703125 77.765625 C-28.85862348 80.68345563 -16.49513997 79.4733788 -6.9375 74.6875 C1.95389563 69.17399721 9.15148591 61.4372318 13.0625 51.6875 C13.41828125 50.80578125 13.7740625 49.9240625 14.140625 49.015625 C16.93465369 38.92870785 16.34208854 26.68417708 11.6640625 17.328125 C6.25431873 8.40864504 0.35467653 2.5355921 -8.9375 -2.3125 C-9.96230469 -2.85390625 -9.96230469 -2.85390625 -11.0078125 -3.40625 C-29.39023533 -11.19174673 -49.30753402 -2.99431972 -61.3671875 11.44921875 Z " fill="#202122" transform="translate(86.9375,20.3125)"/>
<path d="M0 0 C3.5461362 -0.080594 6.60494966 -0.02880313 10 1 C11.2375 1.350625 12.475 1.70125 13.75 2.0625 C14.8225 2.371875 15.895 2.68125 17 3 C17 3.99 17 4.98 17 6 C15.34085637 7.35440297 13.68077505 8.70767588 12.015625 10.0546875 C7.68302595 14.23614938 4.4709055 19.82306284 1.94921875 25.26953125 C0.55561172 27.81013995 -1.3311279 28.04683139 -4 29 C-5.34789347 29.98028616 -6.68212715 30.97971135 -8 32 C-9.31836295 32.69580267 -10.64791086 33.37224433 -12 34 C-14.57599234 31.42400766 -13.18558452 24.15261014 -13.1875 20.6875 C-13.19974609 19.53314453 -13.21199219 18.37878906 -13.22460938 17.18945312 C-13.22654297 16.07892578 -13.22847656 14.96839844 -13.23046875 13.82421875 C-13.23457764 12.80416748 -13.23868652 11.78411621 -13.24291992 10.7331543 C-12.9984039 7.98204186 -12.41268867 6.34491622 -11 4 C-8.69 4 -6.38 4 -4 4 C-3.67 3.34 -3.34 2.68 -3 2 C-2.34 2 -1.68 2 -1 2 C-0.67 1.34 -0.34 0.68 0 0 Z " fill="#232F37" transform="translate(13,12)"/>
<path d="M0 0 C0.33 0 0.66 0 1 0 C1.03867188 1.58941406 1.03867188 1.58941406 1.078125 3.2109375 C1.1343978 4.59900001 1.19174533 5.98701925 1.25 7.375 C1.26417969 8.07367188 1.27835938 8.77234375 1.29296875 9.4921875 C1.36035782 11.77717646 1.36035782 11.77717646 2 15 C3.97283794 16.25119298 3.97283794 16.25119298 6 17 C6.0578304 21.45827926 6.09353855 25.9164628 6.125 30.375 C6.14175781 31.64601563 6.15851563 32.91703125 6.17578125 34.2265625 C6.18222656 35.43828125 6.18867187 36.65 6.1953125 37.8984375 C6.20578613 39.01911621 6.21625977 40.13979492 6.22705078 41.29443359 C6 44 6 44 4 46 C3.34 46 2.68 46 2 46 C1.34 45.34 0.68 44.68 0 44 C-0.99 43.67 -1.98 43.34 -3 43 C-3.99 43.495 -3.99 43.495 -5 44 C-5.4125 43.525625 -5.825 43.05125 -6.25 42.5625 C-8.2004723 40.82100687 -9.48852019 40.53446781 -12 40 C-11.54109375 39.34515625 -11.0821875 38.6903125 -10.609375 38.015625 C-2.28962768 25.64087479 -0.34529494 14.57144643 0 0 Z " fill="#3E4044" transform="translate(109,49)"/>
<path d="M0 0 C0.33 0.66 0.66 1.32 1 2 C1.7425 2 2.485 2 3.25 2 C16.80794702 2 16.80794702 2 21.5859375 6.359375 C23.81344737 8.84687814 25.94592167 11.36806039 28 14 C27.67 14.99 27.34 15.98 27 17 C26.34 16.67 25.68 16.34 25 16 C22.43730503 17.04109483 20.97389657 18.02610343 19 20 C17.68 19.34 16.36 18.68 15 18 C14.67 18.66 14.34 19.32 14 20 C14 19.34 14 18.68 14 18 C12.88625 17.566875 12.88625 17.566875 11.75 17.125 C9.42130491 16.17235201 7.21948943 15.17910376 5 14 C4.0925 13.690625 3.185 13.38125 2.25 13.0625 C0 11 0 11 -0.31640625 8.359375 C-0.31281317 5.55677121 -0.21346261 2.79398842 0 0 Z " fill="#36383B" transform="translate(0,79)"/>
<path d="M0 0 C2.58984375 -0.1171875 2.58984375 -0.1171875 5 0 C4.86722656 0.55945312 4.73445312 1.11890625 4.59765625 1.6953125 C2.96815187 9.09350026 2.41363558 16.44570812 2 24 C1.34 23.01 0.68 22.02 0 21 C-0.28875 21.639375 -0.5775 22.27875 -0.875 22.9375 C-2 25 -2 25 -4 26 C-4.66 26.99 -5.32 27.98 -6 29 C-7 29 -8 29 -9 29 C-9 21.41 -9 13.82 -9 6 C-7.02 5.34 -5.04 4.68 -3 4 C-2.484375 3.29875 -1.96875 2.5975 -1.4375 1.875 C-0.963125 1.25625 -0.48875 0.6375 0 0 Z " fill="#253D4F" transform="translate(9,39)"/>
<path d="M0 0 C2.6875 0.875 2.6875 0.875 5 2 C4.59007813 2.67546875 4.18015625 3.3509375 3.7578125 4.046875 C3.21898438 4.93890625 2.68015625 5.8309375 2.125 6.75 C1.59132813 7.63171875 1.05765625 8.5134375 0.5078125 9.421875 C-1.00060772 11.90682111 -1.00060772 11.90682111 -2.046875 14.26171875 C-3.44345386 16.80875806 -5.32422213 17.04436505 -8 18 C-9.34789347 18.98028616 -10.68212715 19.97971135 -12 21 C-13.31836295 21.69580267 -14.64791086 22.37224433 -16 23 C-17.86916794 21.13083206 -17.21688008 18.12555426 -17.25 15.625 C-17.27578125 14.46226563 -17.3015625 13.29953125 -17.328125 12.1015625 C-17 9 -17 9 -15.640625 7.1484375 C-13.56186316 5.69330421 -11.35133111 4.94053244 -9 4 C-7.22722741 2.47992158 -7.22722741 2.47992158 -6 1 C-6 1.99 -6 2.98 -6 4 C-5.01 3.34 -4.02 2.68 -3 2 C-2.01 1.34 -1.02 0.68 0 0 Z " fill="#233542" transform="translate(17,23)"/>
<path d="M0 0 C0.66 0 1.32 0 2 0 C2 4.95 2 9.9 2 15 C6.62 15 11.24 15 16 15 C16 10.05 16 5.1 16 0 C16.66 0 17.32 0 18 0 C18 4.95 18 9.9 18 15 C22.62 15 27.24 15 32 15 C32 10.05 32 5.1 32 0 C32.33 0 32.66 0 33 0 C33 4.95 33 9.9 33 15 C37.62 15 42.24 15 47 15 C47 10.05 47 5.1 47 0 C47.33 0 47.66 0 48 0 C48 5.28 48 10.56 48 16 C43.05 16 38.1 16 33 16 C33 21.28 33 26.56 33 32 C32.34 32 31.68 32 31 32 C31 27.05 31 22.1 31 17 C26.71 17 22.42 17 18 17 C18 21.95 18 26.9 18 32 C17.34 32 16.68 32 16 32 C16 27.05 16 22.1 16 17 C10.72 17 5.44 17 0 17 C0 11.39 0 5.78 0 0 Z " fill="#B8B7B8" transform="translate(35,45)"/>
<path d="M0 0 C0.33 0.66 0.66 1.32 1 2 C1.99 2.33 2.98 2.66 4 3 C4 10.59 4 18.18 4 26 C1.525 25.01 1.525 25.01 -1 24 C-1.06058594 22.98679687 -1.12117188 21.97359375 -1.18359375 20.9296875 C-1.26806704 19.57811486 -1.35271157 18.22655291 -1.4375 16.875 C-1.47681641 16.20984375 -1.51613281 15.5446875 -1.55664062 14.859375 C-1.75620744 11.72771112 -2.05315944 8.71293903 -2.625 5.625 C-2.74875 4.75875 -2.8725 3.8925 -3 3 C-1.5625 1.125 -1.5625 1.125 0 0 Z " fill="#282A2E" transform="translate(111,40)"/>
<path d="M0 0 C0.33 0.66 0.66 1.32 1 2 C1.7425 2 2.485 2 3.25 2 C7.14514689 2 10.7470866 2.01842919 14.5625 2.8125 C15.32691406 2.96332031 16.09132813 3.11414063 16.87890625 3.26953125 C19.30037766 4.10344498 20.44387755 4.97906176 22 7 C21.6875 9.1875 21.6875 9.1875 21 11 C12.42857143 11.14285714 12.42857143 11.14285714 9 10 C9 9.34 9 8.68 9 8 C8.2575 7.855625 7.515 7.71125 6.75 7.5625 C4.47972261 7.09812508 2.24240521 6.58136431 0 6 C0 4.02 0 2.04 0 0 Z " fill="#3B3E43" transform="translate(0,79)"/>
<path d="M0 0 C0.66 0.66 1.32 1.32 2 2 C4.57061311 2.64767793 4.57061311 2.64767793 7 3 C7.125 5.875 7.125 5.875 7 9 C6.34 9.66 5.68 10.32 5 11 C4.34 11 3.68 11 3 11 C2.34 10.34 1.68 9.68 1 9 C0.01 8.67 -0.98 8.34 -2 8 C-2.99 8.495 -2.99 8.495 -4 9 C-4.61875 8.2884375 -4.61875 8.2884375 -5.25 7.5625 C-7.182185 5.83733482 -8.48192275 5.43415125 -11 5 C-7.58994413 0.25027933 -7.58994413 0.25027933 -4.9375 -0.875 C-3 -1 -3 -1 0 0 Z " fill="#383A3D" transform="translate(108,84)"/>
<path d="M0 0 C0.84755859 0.00322266 1.69511719 0.00644531 2.56835938 0.00976562 C3.44943359 0.01814453 4.33050781 0.02652344 5.23828125 0.03515625 C6.57729492 0.04192383 6.57729492 0.04192383 7.94335938 0.04882812 C10.14590112 0.06060642 12.34830724 0.07705461 14.55078125 0.09765625 C14.55078125 0.42765625 14.55078125 0.75765625 14.55078125 1.09765625 C13.35195312 1.13632813 13.35195312 1.13632813 12.12890625 1.17578125 C-2.46726899 1.92957434 -12.22857058 6.41837961 -23.44921875 15.53515625 C-25.44921875 17.09765625 -25.44921875 17.09765625 -27.44921875 17.09765625 C-23.81584279 8.79539218 -15.41693926 4.52250237 -7.44921875 1.09765625 C-4.6251011 0.1562837 -2.92003843 -0.01959757 0 0 Z " fill="#1E1F20" transform="translate(52.44921875,12.90234375)"/>
<path d="M0 0 C3.29083402 1.3961114 4.95564243 2.93746607 7.125 5.75 C11.99963056 11.54059786 18.30013168 14.70397283 25 18 C25 18.66 25 19.32 25 20 C18.80374894 19.68224354 14.83772672 16.53629745 10 13 C9.0925 12.360625 8.185 11.72125 7.25 11.0625 C4.33806935 8.39323024 1.98141799 5.42321577 0 2 C0 1.34 0 0.68 0 0 Z " fill="#19191A" transform="translate(22,79)"/>
<path d="M0 0 C0.99 0.33 1.98 0.66 3 1 C-0.2955515 8.58975496 -7.68265941 12.84597388 -15 16 C-15.66 16 -16.32 16 -17 16 C-15.50522914 11.98170421 -13.26403679 10.67470232 -9.625 8.5625 C-5.48810417 6.1595322 -2.81378713 3.8872936 0 0 Z " fill="#F0F1F1" transform="translate(90,81)"/>
<path d="M0 0 C2.58619714 1.9063567 2.99343927 2.96454598 3.58984375 6.1875 C3.70457031 7.445625 3.81929687 8.70375 3.9375 10 C4.65440329 16.77762022 6.30549781 22.70846818 9 29 C8.01 29.33 7.02 29.66 6 30 C5.18243762 27.93950145 4.37115266 25.87651147 3.5625 23.8125 C3.11003906 22.66394531 2.65757813 21.51539062 2.19140625 20.33203125 C0.38753282 15.28709999 -0.12130075 11.03836836 -0.0625 5.6875 C-0.05347656 4.61886719 -0.04445313 3.55023438 -0.03515625 2.44921875 C-0.02355469 1.64097656 -0.01195312 0.83273438 0 0 Z " fill="#303132" transform="translate(15,50)"/>
<path d="M0 0 C0.5662207 0.15847412 1.13244141 0.31694824 1.71582031 0.48022461 C4.0345345 1.00785848 6.17358397 1.204156 8.546875 1.31640625 C9.39121094 1.35830078 10.23554687 1.40019531 11.10546875 1.44335938 C12.41451172 1.50233398 12.41451172 1.50233398 13.75 1.5625 C14.63816406 1.60568359 15.52632812 1.64886719 16.44140625 1.69335938 C18.62745963 1.79913615 20.81362089 1.90122546 23 2 C23 2.66 23 3.32 23 4 C14.97789346 5.83656285 6.75736311 5.82085931 -1 3 C-0.67 2.01 -0.34 1.02 0 0 Z " fill="#272829" transform="translate(47,97)"/>
<path d="M0 0 C0.33 0 0.66 0 1 0 C1 4.95 1 9.9 1 15 C5.62 15 10.24 15 15 15 C15 10.05 15 5.1 15 0 C15.33 0 15.66 0 16 0 C16 5.28 16 10.56 16 16 C11.05 16 6.1 16 1 16 C1 21.28 1 26.56 1 32 C0.67 32 0.34 32 0 32 C-0.86039692 21.18547252 -1.0229267 10.81154832 0 0 Z " fill="#FCFCFC" transform="translate(67,45)"/>
<path d="M0 0 C0.33 0 0.66 0 1 0 C1.02578125 1.05960938 1.0515625 2.11921875 1.078125 3.2109375 C1.1343978 4.59900001 1.19174533 5.98701925 1.25 7.375 C1.26417969 8.07367188 1.27835937 8.77234375 1.29296875 9.4921875 C1.36035782 11.77717646 1.36035782 11.77717646 2 15 C3.91388341 16.56483494 3.91388341 16.56483494 6 17 C6 18.98 6 20.96 6 23 C4.35 22.67 2.7 22.34 1 22 C0.05862745 19.17588235 -0.11725382 17.47081968 -0.09765625 14.55078125 C-0.09443359 13.70322266 -0.09121094 12.85566406 -0.08789062 11.98242188 C-0.07951172 11.10134766 -0.07113281 10.22027344 -0.0625 9.3125 C-0.05798828 8.41982422 -0.05347656 7.52714844 -0.04882812 6.60742188 C-0.03704983 4.40488013 -0.02060164 2.20247401 0 0 Z " fill="#4D4E51" transform="translate(109,49)"/>
<path d="M0 0 C2.475 0.495 2.475 0.495 5 1 C5 3.97 5 6.94 5 10 C3.35 10 1.7 10 0 10 C0 6.7 0 3.4 0 0 Z " fill="#AAAAAB" transform="translate(35,33)"/>
<path d="M0 0 C2.475 0.495 2.475 0.495 5 1 C5 3.64 5 6.28 5 9 C3.35 9 1.7 9 0 9 C0 6.03 0 3.06 0 0 Z " fill="#A1A1A1" transform="translate(65,79)"/>
<path d="M0 0 C1.65 0 3.3 0 5 0 C5 3.3 5 6.6 5 10 C3.35 10 1.7 10 0 10 C0 6.7 0 3.4 0 0 Z " fill="#B9B9BA" transform="translate(80,33)"/>
<path d="M0 0 C0.87914063 0.00902344 1.75828125 0.01804687 2.6640625 0.02734375 C4.8178271 0.05075423 6.97145014 0.0866199 9.125 0.125 C9.125 0.455 9.125 0.785 9.125 1.125 C8.31417969 1.16238281 7.50335938 1.19976562 6.66796875 1.23828125 C-0.86703557 1.68564472 -7.68368543 2.83357912 -14.875 5.125 C-15.205 4.135 -15.535 3.145 -15.875 2.125 C-10.49292923 -0.11605897 -5.71754456 -0.11193988 0 0 Z " fill="#141415" transform="translate(57.875,12.875)"/>
<path d="M0 0 C0.99 0 1.98 0 3 0 C3.69670416 1.78810766 4.38211189 3.58062052 5.0625 5.375 C5.63677734 6.87160156 5.63677734 6.87160156 6.22265625 8.3984375 C7 11 7 11 6 13 C3.19438607 11.59719304 2.99319493 9.9490995 1.875 7.0625 C1.52179688 6.16660156 1.16859375 5.27070312 0.8046875 4.34765625 C0 2 0 2 0 0 Z " fill="#1C1D1E" transform="translate(97,35)"/>
<path d="M0 0 C0.99 0 1.98 0 3 0 C2.43454163 3.95820859 1.19097652 6.6659053 -1 10 C-1.99 9.01 -2.98 8.02 -4 7 C-2.68 4.69 -1.36 2.38 0 0 Z " fill="#E5E5E6" transform="translate(95,73)"/>
<path d="M0 0 C1.98 0.495 1.98 0.495 4 1 C4 1.66 4 2.32 4 3 C3.01 3.495 3.01 3.495 2 4 C2.66 4.66 3.32 5.32 4 6 C3.625 8.125 3.625 8.125 3 10 C1.68 9.67 0.36 9.34 -1 9 C-1 8.34 -1 7.68 -1 7 C-0.34 6.67 0.32 6.34 1 6 C0.34 5.34 -0.32 4.68 -1 4 C-0.625 1.875 -0.625 1.875 0 0 Z " fill="#BABABA" transform="translate(66,33)"/>
<path d="M0 0 C1.32 0 2.64 0 4 0 C4 0.66 4 1.32 4 2 C3.34 2 2.68 2 2 2 C2 2.66 2 3.32 2 4 C2.66 4.33 3.32 4.66 4 5 C3.34 5 2.68 5 2 5 C2 5.99 2 6.98 2 8 C2.66 8 3.32 8 4 8 C4 8.66 4 9.32 4 10 C2.68 10 1.36 10 0 10 C0 6.7 0 3.4 0 0 Z " fill="#BCBCBD" transform="translate(50,79)"/>
<path d="M0 0 C0.66 0 1.32 0 2 0 C2.33 2.97 2.66 5.94 3 9 C2.01 8.67 1.02 8.34 0 8 C-0.33 8.66 -0.66 9.32 -1 10 C-1.125 2.25 -1.125 2.25 0 0 Z " fill="#BFBFC0" transform="translate(51,33)"/>
<path d="M0 0 C1 3 1 3 0.22265625 4.82421875 C-0.8515625 6.54947917 -1.92578125 8.27473958 -3 10 C-3.66 9.67 -4.32 9.34 -5 9 C-3.7508258 5.54074837 -2.32472205 2.85306797 0 0 Z " fill="#141516" transform="translate(100,73)"/>
<path d="M0 0 C0.99 0.99 1.98 1.98 3 3 C2.34 3.66 1.68 4.32 1 5 C-1.625 4.625 -1.625 4.625 -4 4 C-2.68 2.68 -1.36 1.36 0 0 Z " fill="#31373D" transform="translate(28,14)"/>
<path d="M0 0 C0.66 0 1.32 0 2 0 C2.66 1.65 3.32 3.3 4 5 C1.50907189 6.24546405 0.58919267 5.7767578 -2 5 C-2 4.34 -2 3.68 -2 3 C-1.34 3 -0.68 3 0 3 C0 2.01 0 1.02 0 0 Z " fill="#434B53" transform="translate(15,78)"/>
<path d="M0 0 C3.36720387 1.39332574 4.9859524 2.9789286 7 6 C4 6 4 6 1.8125 4.125 C0 2 0 2 0 0 Z " fill="#363738" transform="translate(93,18)"/>
</svg>
